<svg width="122" height="37" viewBox="0 0 122 37" fill="none" xmlns="http://www.w3.org/2000/svg">
<g clip-path="url(#clip0_442_1093)">
<path d="M104.953 36.286C100.733 37.92 99.017 36.372 99.017 35.395C100.512 35.269 104.084 35.064 104.953 36.286ZM110.309 34.95C109.261 35.7202 107.974 36.093 106.676 36.0019C105.379 35.9109 104.156 35.3619 103.226 34.453C104.666 34.053 108.598 33.579 110.309 34.95ZM103.17 31.774C103.33 33.807 101.248 34.95 99 35.115C99.41 33.07 101.509 32.157 103.17 31.774ZM107.202 29.9C107.44 30.769 107.113 33.128 103.879 34.064C104.018 32.471 104.865 30.397 107.202 29.9ZM113.615 32.265C112.786 33.0923 111.693 33.6025 110.526 33.7069C109.359 33.8112 108.193 33.503 107.23 32.836C108.526 32.168 111.638 31.266 113.615 32.265ZM110.198 27.559C110.641 28.415 110.735 30.854 107.872 32.322C107.706 30.752 108.337 28.067 110.198 27.559ZM117.281 28.507C117.011 29.0373 116.637 29.5073 116.18 29.8884C115.723 30.2695 115.194 30.5538 114.624 30.724C114.059 30.8898 113.466 30.9363 112.883 30.8605C112.299 30.7848 111.738 30.5884 111.234 30.284C113.039 28.587 115.919 27.936 117.281 28.507ZM113.001 23.96C114.285 26.2 112.928 28.758 111.516 29.809C110.888 27.727 111.465 25.458 113.001 23.96ZM119.663 23.863C119.818 27.342 116.185 27.153 114.479 27.176C115.016 26.445 118.001 23.795 119.663 23.863ZM115.183 20.613C115.858 21.356 116.871 24.212 114.628 26.542C113.925 24.857 113.771 22.27 115.183 20.613ZM121.568 19.071C121.684 21.881 119.319 23.303 117.038 23.281C117.724 21.927 119.558 19.317 121.568 19.071ZM116.783 17.135C118.295 18.025 118.123 20.899 117.231 22.395C116.229 21.002 115.481 19.271 116.783 17.135ZM121.667 14.502C122.415 17.061 120.217 18.792 118.898 18.94C119.236 17.718 119.678 15.553 121.667 14.502ZM117.06 13.651C118.727 14.486 119.517 16.483 118.893 18.283C117.73 17.346 116.329 15.364 117.06 13.651ZM121.745 10.555C122.775 13.668 120.41 14.685 119.53 14.935C119.635 13.611 120.477 10.972 121.745 10.555ZM117.126 9.738C117.802 9.933 119.729 11.515 119.38 14.348C118.112 13.634 116.572 12.274 117.126 9.738ZM121.047 5.838C122.199 9.664 120.277 11.235 119.646 11.548C119.546 10.338 119.424 7.511 121.047 5.838ZM116.783 5.934C117.99 6.271 119.513 8.487 119.441 10.618C118.245 10.07 116.456 7.791 116.783 5.934ZM117.143 0C119.945 2.896 120.338 5.18 119.519 7.996C118.25 6.854 117.237 3.427 117.143 0ZM17.047 36.286C21.267 37.92 22.983 36.372 22.983 35.395C21.488 35.269 17.916 35.064 17.047 36.286ZM11.69 34.95C12.738 35.7202 14.0254 36.093 15.3228 36.0019C16.6201 35.9109 17.8429 35.3619 18.773 34.453C17.333 34.053 13.401 33.579 11.69 34.95ZM18.829 31.774C18.669 33.807 20.751 34.95 22.999 35.115C22.589 33.07 20.49 32.157 18.829 31.774ZM14.798 29.9C14.56 30.769 14.887 33.128 18.121 34.064C17.982 32.471 17.135 30.397 14.798 29.9ZM8.38501 32.265C9.21426 33.0923 10.3074 33.6025 11.4741 33.7069C12.6408 33.8112 13.8071 33.503 14.77 32.836C13.474 32.168 10.362 31.266 8.38501 32.265ZM11.802 27.559C11.359 28.415 11.265 30.854 14.128 32.322C14.294 30.752 13.663 28.067 11.802 27.559ZM4.71901 28.507C4.98853 29.0373 5.36304 29.5073 5.81979 29.8884C6.27655 30.2695 6.80601 30.5538 7.37601 30.724C7.94069 30.8898 8.53367 30.9363 9.11728 30.8605C9.70089 30.7848 10.2624 30.5884 10.766 30.284C8.96101 28.587 6.08101 27.936 4.71901 28.507ZM8.99901 23.96C7.71501 26.2 9.07201 28.758 10.484 29.809C11.112 27.727 10.536 25.458 9.00001 23.96H8.99901ZM2.33701 23.863C2.18201 27.342 5.81501 27.153 7.52101 27.176C6.98401 26.445 3.99901 23.795 2.33701 23.863ZM6.81701 20.613C6.14201 21.356 5.12901 24.212 7.37201 26.542C8.07501 24.857 8.22901 22.27 6.81701 20.613ZM0.433011 19.071C0.317011 21.881 2.68201 23.303 4.96301 23.281C4.27701 21.927 2.44301 19.317 0.433011 19.071ZM5.21801 17.135C3.70601 18.025 3.87801 20.899 4.77001 22.395C5.77201 21.002 6.52001 19.271 5.21801 17.135ZM0.333011 14.502C-0.414989 17.061 1.78301 18.792 3.10201 18.94C2.76401 17.718 2.32101 15.553 0.332011 14.502H0.333011ZM4.94001 13.651C3.27301 14.486 2.48301 16.483 3.10701 18.283C4.27001 17.346 5.67101 15.364 4.94001 13.651ZM0.255011 10.555C-0.774989 13.668 1.59001 14.685 2.47001 14.935C2.36501 13.611 1.52301 10.972 0.255011 10.555ZM4.87401 9.738C4.19801 9.933 2.27101 11.515 2.62001 14.348C3.88801 13.634 5.42801 12.274 4.87401 9.738ZM0.953011 5.838C-0.198989 9.664 1.72301 11.235 2.35401 11.548C2.45401 10.338 2.57601 7.511 0.953011 5.838ZM5.21701 5.934C4.01001 6.271 2.48701 8.487 2.55901 10.618C3.75501 10.07 5.54401 7.791 5.21701 5.934ZM4.85701 0C2.05501 2.896 1.66201 5.18 2.48101 7.996C3.75001 6.854 4.76301 3.427 4.85701 0ZM55.834 35C55.996 35 56.122 34.892 56.122 34.73V22.67C56.122 22.508 55.996 22.4 55.834 22.4H51.244C51.082 22.4 50.974 22.508 50.974 22.67V24.452C50.974 24.614 51.082 24.74 51.244 24.74H53.368V34.73C53.368 34.892 53.476 35 53.638 35H55.834ZM61.27 35.216C63.052 35.216 64.618 34.28 64.636 32.462C64.672 31.13 63.79 30.356 62.692 29.924L61.36 29.402C60.964 29.24 60.658 29.006 60.658 28.682C60.658 28.412 60.82 28.106 61.36 28.106C61.846 28.106 62.332 28.358 62.908 28.808C63.07 28.916 63.196 28.934 63.322 28.808L64.24 27.728C64.312 27.62 64.366 27.476 64.258 27.35C63.8821 26.9118 63.4152 26.5609 62.8899 26.3215C62.3645 26.0821 61.7933 25.9601 61.216 25.964C59.524 25.964 58.048 26.954 58.048 28.682C58.048 29.906 58.804 30.662 59.956 31.112L61.108 31.58C61.702 31.814 61.9 32.012 61.9 32.354C61.9 32.75 61.576 32.93 61.09 32.93C60.46 32.93 59.866 32.66 59.092 32.102C58.948 32.012 58.786 31.958 58.642 32.192L57.922 33.2C57.796 33.38 57.778 33.596 57.868 33.722C58.606 34.604 59.776 35.216 61.27 35.216ZM69.604 35.216C70.216 35.216 71.188 35.108 71.188 34.658V33.164C71.188 32.984 71.044 32.894 70.864 32.912C70.63 32.93 70.468 32.93 70.306 32.93C69.856 32.93 69.55 32.678 69.55 32.192V28.304H70.9C71.062 28.304 71.17 28.196 71.17 28.034V26.45C71.17 26.288 71.062 26.18 70.9 26.18H69.55V24.11C69.55 23.948 69.424 23.84 69.262 23.84H67.048C66.886 23.84 66.76 23.948 66.76 24.11V26.18H65.662C65.5 26.18 65.392 26.288 65.392 26.45V28.034C65.392 28.196 65.5 28.304 65.662 28.304H66.76V32.498C66.76 34.55 68.146 35.216 69.604 35.216ZM17.175 15C17.265 15 17.325 14.94 17.325 14.85V12.59H18.045C19.735 12.59 20.535 11.66 20.535 10.3C20.535 8.94 19.735 8 18.045 8H15.895C15.805 8 15.745 8.06 15.745 8.15V14.85C15.745 14.94 15.805 15 15.895 15H17.175ZM17.325 9.4H18.005C18.535 9.4 19.025 9.57 19.025 10.3C19.025 11.02 18.535 11.19 18.005 11.19H17.325V9.4ZM22.825 15C22.915 15 22.985 14.94 22.985 14.85V12.49C22.985 11.76 23.365 11.36 23.995 11.36C24.145 11.36 24.255 11.38 24.355 11.41C24.495 11.44 24.565 11.41 24.565 11.28V10.31C24.565 10.22 24.545 10.16 24.475 10.11C24.395 10.05 24.265 9.98 24.025 9.98C23.455 9.98 23.145 10.38 22.985 10.91L22.935 10.26C22.935 10.14 22.875 10.1 22.785 10.1H21.605C21.515 10.1 21.455 10.16 21.455 10.25V14.85C21.455 14.94 21.515 15 21.605 15H22.825ZM27.595 15.12C29.075 15.12 30.175 14 30.175 12.55C30.175 11.1 29.075 9.98 27.595 9.98C26.115 9.98 25.025 11.1 25.025 12.55C25.025 14 26.115 15.12 27.595 15.12ZM27.595 13.72C26.975 13.72 26.495 13.27 26.495 12.55C26.495 11.83 26.975 11.38 27.595 11.38C28.215 11.38 28.695 11.83 28.695 12.55C28.695 13.27 28.215 13.72 27.595 13.72ZM33.085 15.12C33.785 15.12 34.285 14.84 34.615 14.37L34.635 14.85C34.635 14.94 34.705 15 34.795 15H35.895C35.985 15 36.065 14.94 36.065 14.85V8C36.065 7.91 35.995 7.85 35.905 7.85H34.675C34.585 7.85 34.525 7.91 34.525 8V10.59C34.195 10.2 33.725 9.98 33.085 9.98C31.725 9.98 30.785 11.1 30.785 12.55C30.785 14.01 31.725 15.12 33.085 15.12ZM33.415 13.73C32.765 13.73 32.275 13.27 32.275 12.55C32.275 11.84 32.765 11.37 33.415 11.37C34.085 11.37 34.545 11.84 34.545 12.54C34.545 13.26 34.085 13.73 33.415 13.73ZM38.935 15.12C39.645 15.12 40.095 14.77 40.375 14.27L40.415 14.84C40.415 14.96 40.485 15 40.575 15H41.745C41.835 15 41.905 14.94 41.905 14.85V10.25C41.905 10.16 41.835 10.1 41.745 10.1H40.535C40.445 10.1 40.375 10.16 40.375 10.25V12.73C40.375 13.38 40.045 13.72 39.525 13.72C38.985 13.72 38.705 13.38 38.705 12.73V10.25C38.705 10.16 38.635 10.1 38.545 10.1H37.325C37.235 10.1 37.175 10.16 37.175 10.25V13.09C37.175 14.37 37.915 15.12 38.935 15.12ZM45.375 15.12C46.165 15.12 46.825 14.77 47.245 14.22C47.305 14.15 47.295 14.07 47.235 14.01L46.545 13.35C46.465 13.27 46.355 13.27 46.285 13.34C46.015 13.59 45.755 13.72 45.425 13.72C44.685 13.72 44.245 13.16 44.245 12.52C44.245 11.89 44.685 11.38 45.405 11.38C45.745 11.38 46.005 11.5 46.265 11.76C46.345 11.83 46.455 11.83 46.535 11.75L47.225 11.09C47.285 11.03 47.295 10.94 47.235 10.88C46.815 10.33 46.155 9.98 45.335 9.98C43.855 9.98 42.775 11.08 42.775 12.52C42.775 13.99 43.875 15.12 45.375 15.12ZM50.145 15.12C50.485 15.12 51.025 15.06 51.025 14.81V13.98C51.025 13.88 50.945 13.83 50.845 13.84C50.715 13.85 50.625 13.85 50.535 13.85C50.285 13.85 50.115 13.71 50.115 13.44V11.28H50.865C50.955 11.28 51.015 11.22 51.015 11.13V10.25C51.015 10.16 50.955 10.1 50.865 10.1H50.115V8.95C50.115 8.86 50.045 8.8 49.955 8.8H48.725C48.635 8.8 48.565 8.86 48.565 8.95V10.1H47.955C47.865 10.1 47.805 10.16 47.805 10.25V11.13C47.805 11.22 47.865 11.28 47.955 11.28H48.565V13.61C48.565 14.75 49.335 15.12 50.145 15.12ZM56.095 15.12C57.575 15.12 58.675 14 58.675 12.55C58.675 11.1 57.575 9.98 56.095 9.98C54.615 9.98 53.525 11.1 53.525 12.55C53.525 14 54.615 15.12 56.095 15.12ZM56.095 13.72C55.475 13.72 54.995 13.27 54.995 12.55C54.995 11.83 55.475 11.38 56.095 11.38C56.715 11.38 57.195 11.83 57.195 12.55C57.195 13.27 56.715 13.72 56.095 13.72ZM61.245 15C61.335 15 61.405 14.94 61.405 14.85V11.28H62.385C62.475 11.28 62.535 11.22 62.535 11.13V10.25C62.535 10.16 62.475 10.1 62.385 10.1H61.405V9.61C61.405 9.28 61.515 9.04 61.985 9.04C62.095 9.04 62.235 9.07 62.405 9.1C62.475 9.11 62.535 9.1 62.535 9.03V8.02C62.535 7.96 62.505 7.89 62.445 7.86C62.145 7.71 61.925 7.69 61.625 7.69C60.535 7.69 59.865 8.21 59.865 9.41V10.1H59.285C59.195 10.1 59.135 10.16 59.135 10.25V11.13C59.135 11.22 59.195 11.28 59.285 11.28H59.865V14.85C59.865 14.94 59.925 15 60.015 15H61.245ZM67.325 15.12C67.665 15.12 68.205 15.06 68.205 14.81V13.98C68.205 13.88 68.125 13.83 68.025 13.84C67.895 13.85 67.805 13.85 67.715 13.85C67.465 13.85 67.295 13.71 67.295 13.44V11.28H68.045C68.135 11.28 68.195 11.22 68.195 11.13V10.25C68.195 10.16 68.135 10.1 68.045 10.1H67.295V8.95C67.295 8.86 67.225 8.8 67.135 8.8H65.905C65.815 8.8 65.745 8.86 65.745 8.95V10.1H65.135C65.045 10.1 64.985 10.16 64.985 10.25V11.13C64.985 11.22 65.045 11.28 65.135 11.28H65.745V13.61C65.745 14.75 66.515 15.12 67.325 15.12ZM71.975 9.98C71.275 9.98 70.825 10.33 70.545 10.83V8C70.545 7.91 70.475 7.85 70.385 7.85H69.165C69.075 7.85 69.015 7.91 69.015 8V14.85C69.015 14.94 69.075 15 69.165 15H70.385C70.475 15 70.545 14.94 70.545 14.85V12.37C70.545 11.72 70.865 11.38 71.395 11.38C71.935 11.38 72.215 11.72 72.215 12.37V14.85C72.215 14.94 72.285 15 72.375 15H73.585C73.675 15 73.745 14.94 73.745 14.85V12.01C73.745 10.73 72.995 9.98 71.975 9.98ZM77.315 15.12C78.005 15.12 78.635 14.92 79.055 14.5C79.145 14.42 79.145 14.34 79.105 14.28L78.695 13.7C78.635 13.63 78.595 13.61 78.515 13.65C78.105 13.88 77.765 13.92 77.435 13.92C76.735 13.92 76.275 13.66 76.105 13.13H78.925C79.375 13.13 79.505 12.83 79.505 12.33C79.505 11.07 78.635 9.98 77.135 9.98C75.625 9.98 74.615 11.09 74.615 12.53C74.615 14.02 75.705 15.12 77.315 15.12ZM76.085 12.07C76.205 11.49 76.635 11.24 77.145 11.24C77.655 11.24 78.045 11.48 78.145 12.07H76.085ZM84.955 15C85.035 15 85.105 14.96 85.135 14.88L86.165 11.88L87.185 14.88C87.215 14.96 87.285 15 87.365 15H88.615C88.695 15 88.765 14.96 88.795 14.88L90.315 10.27C90.355 10.16 90.305 10.1 90.195 10.1H89.005C88.925 10.1 88.855 10.14 88.825 10.22L87.915 13.22L86.925 10.22C86.9117 10.1835 86.887 10.1521 86.8546 10.1306C86.8223 10.109 86.7839 10.0983 86.745 10.1H85.575C85.495 10.1 85.425 10.14 85.395 10.22L84.405 13.22L83.495 10.22C83.4817 10.1835 83.457 10.1521 83.4246 10.1306C83.3923 10.109 83.3539 10.0983 83.315 10.1H82.135C82.025 10.1 81.965 10.16 82.005 10.27L83.525 14.88C83.555 14.96 83.625 15 83.705 15H84.955ZM93.235 15.12C93.925 15.12 94.555 14.92 94.975 14.5C95.065 14.42 95.065 14.34 95.025 14.28L94.615 13.7C94.555 13.63 94.515 13.61 94.435 13.65C94.025 13.88 93.685 13.92 93.355 13.92C92.655 13.92 92.195 13.66 92.025 13.13H94.845C95.295 13.13 95.425 12.83 95.425 12.33C95.425 11.07 94.555 9.98 93.055 9.98C91.545 9.98 90.535 11.09 90.535 12.53C90.535 14.02 91.625 15.12 93.235 15.12ZM92.005 12.07C92.125 11.49 92.555 11.24 93.065 11.24C93.575 11.24 93.965 11.48 94.065 12.07H92.005ZM98.735 15.12C99.425 15.12 100.055 14.92 100.475 14.5C100.565 14.42 100.565 14.34 100.525 14.28L100.115 13.7C100.055 13.63 100.015 13.61 99.935 13.65C99.525 13.88 99.185 13.92 98.855 13.92C98.155 13.92 97.695 13.66 97.525 13.13H100.345C100.795 13.13 100.925 12.83 100.925 12.33C100.925 11.07 100.055 9.98 98.555 9.98C97.045 9.98 96.035 11.09 96.035 12.53C96.035 14.02 97.125 15.12 98.735 15.12ZM97.505 12.07C97.625 11.49 98.055 11.24 98.565 11.24C99.075 11.24 99.465 11.48 99.565 12.07H97.505ZM103.165 15C103.255 15 103.325 14.94 103.325 14.85V13.86L103.875 13.22L105.095 14.91C105.145 14.98 105.195 15 105.275 15H106.595C106.715 15 106.755 14.92 106.685 14.81L104.795 12.16L106.425 10.29C106.505 10.18 106.475 10.1 106.335 10.1H104.955C104.885 10.1 104.825 10.12 104.775 10.18L103.325 11.94V8C103.325 7.91 103.255 7.85 103.165 7.85H101.935C101.845 7.85 101.785 7.91 101.785 8V14.85C101.785 14.94 101.845 15 101.935 15H103.165Z" fill="white"/>
</g>
<defs>
<clipPath id="clip0_442_1093">
<rect width="122" height="37" fill="white"/>
</clipPath>
</defs>
</svg>
