<svg width="533" height="155" viewBox="0 0 533 155" fill="none" xmlns="http://www.w3.org/2000/svg">
<path d="M473.818 103.633C470.861 103.633 478.252 46.4818 482.316 17.906C482.942 13.4718 532.57 27.1439 525.919 62.9868C519.268 98.8296 477.513 103.633 473.818 103.633Z" stroke="#535674" style="stroke:#535674;stroke:color(display-p3 0.3255 0.3373 0.4549);stroke-opacity:1;" stroke-width="12" stroke-linecap="round"/>
<path d="M401.762 101.047C412.109 71.9782 433.319 13.8413 435.388 13.8413C437.457 13.8413 449.553 73.21 455.342 102.894" stroke="#535674" style="stroke:#535674;stroke:color(display-p3 0.3255 0.3373 0.4549);stroke-opacity:1;" stroke-width="12" stroke-linecap="round"/>
<path d="M416.912 66.312L469.753 56.7046" stroke="#535674" style="stroke:#535674;stroke:color(display-p3 0.3255 0.3373 0.4549);stroke-opacity:1;" stroke-width="12" stroke-linecap="round"/>
<path d="M377.374 17.9058C341.531 23.4485 334.88 103.264 366.289 103.264C397.698 103.264 403.61 17.9058 377.374 17.9058Z" stroke="#535674" style="stroke:#535674;stroke:color(display-p3 0.3255 0.3373 0.4549);stroke-opacity:1;" stroke-width="12" stroke-linecap="round"/>
<path d="M323.055 17.5369C315.172 45.9895 299.997 102.895 302.362 102.895C304.727 102.895 321.7 100.431 334.88 98.4605" stroke="#535674" style="stroke:#535674;stroke:color(display-p3 0.3255 0.3373 0.4549);stroke-opacity:1;" stroke-width="12" stroke-linecap="round"/>
<path d="M233.974 102.36C240.529 77.9718 253.98 29.0755 255.347 28.5999C257.056 28.0053 275.312 103.833 277.881 101.155C280.451 98.4778 302.593 17.1499 304.215 14.4057" stroke="#535674" style="stroke:#535674;stroke:color(display-p3 0.3255 0.3373 0.4549);stroke-opacity:1;" stroke-width="12" stroke-linecap="round" stroke-linejoin="round"/>
<path d="M162.686 23.4485C156.774 41.9242 138.499 109.757 139.841 109.416C141.184 109.075 194.719 37.0119 196.312 37.4899C197.905 37.9679 197.914 101.044 198.688 101.772C199.307 102.355 225.939 48.4339 239.178 21.4005" stroke="#535674" style="stroke:#535674;stroke:color(display-p3 0.3255 0.3373 0.4549);stroke-opacity:1;" stroke-width="12" stroke-linecap="round" stroke-linejoin="round"/>
<path d="M114.808 20.8616C78.9651 26.4043 72.3138 106.219 103.723 106.219C135.131 106.219 141.044 20.8616 114.808 20.8616Z" stroke="#535674" style="stroke:#535674;stroke:color(display-p3 0.3255 0.3373 0.4549);stroke-opacity:1;" stroke-width="12" stroke-linecap="round"/>
<path d="M14.8219 103.701C11.8658 103.701 19.2561 46.5497 23.3208 17.9739C23.9459 13.5397 73.5746 27.2117 66.9233 63.0546C60.2721 98.8975 18.5171 103.701 14.8219 103.701Z" stroke="#535674" style="stroke:#535674;stroke:color(display-p3 0.3255 0.3373 0.4549);stroke-opacity:1;" stroke-width="12" stroke-linecap="round"/>
<path d="M6.82129 148.852L526.821 139.852" stroke="#535674" style="stroke:#535674;stroke:color(display-p3 0.3255 0.3373 0.4549);stroke-opacity:1;" stroke-width="12" stroke-linecap="round"/>
</svg>
